<?xml version="1.0" encoding="utf-8"?>
<!-- Generator: Adobe Illustrator 16.2.1, SVG Export Plug-In . SVG Version: 6.00 Build 0)  -->
<!DOCTYPE svg PUBLIC "-//W3C//DTD SVG 1.1//EN" "http://www.w3.org/Graphics/SVG/1.1/DTD/svg11.dtd">
<svg version="1.1" id="Layer_1" xmlns="http://www.w3.org/2000/svg" xmlns:xlink="http://www.w3.org/1999/xlink" x="0px" y="0px"
	 width="42px" height="32px" viewBox="0 0 42 32" enable-background="new 0 0 42 32" xml:space="preserve">
<g>
	<path fill="#FFFFFF" d="M39,0c-1.654,0-3,1.346-3,3c0,0.888,0.396,1.679,1.012,2.229L28.211,19.26C27.84,19.095,27.432,19,27,19
		c-0.868,0-1.645,0.376-2.193,0.967l-9.073-5.745C15.902,13.848,16,13.436,16,13c0-1.654-1.346-3-3-3s-3,1.346-3,3
		c0,0.904,0.41,1.706,1.044,2.256L4.149,26.23C3.795,26.083,3.407,26,3,26c-1.654,0-3,1.346-3,3s1.346,3,3,3s3-1.346,3-3
		c0-0.888-0.395-1.678-1.01-2.229l6.904-10.989C12.237,15.92,12.609,16,13,16c0.859,0,1.629-0.367,2.176-0.947l9.078,5.748
		C24.093,21.169,24,21.573,24,22c0,1.654,1.346,3,3,3s3-1.346,3-3c0-0.863-0.371-1.636-0.957-2.184L37.854,5.77
		C38.207,5.917,38.594,6,39,6c1.654,0,3-1.346,3-3S40.654,0,39,0z M5,29c0,1.104-0.897,2-2,2s-2-0.896-2-2s0.897-2,2-2
		S5,27.896,5,29z M13,15c-1.103,0-2-0.897-2-2s0.897-2,2-2s2,0.897,2,2S14.103,15,13,15z M27,24c-1.104,0-2-0.896-2-2s0.896-2,2-2
		s2,0.896,2,2S28.104,24,27,24z M39,5c-1.104,0-2-0.897-2-2s0.896-2,2-2s2,0.897,2,2S40.104,5,39,5z"/>
</g>
</svg>
