<?xml version="1.0" encoding="utf-8"?>
<!-- Generator: Adobe Illustrator 16.2.1, SVG Export Plug-In . SVG Version: 6.00 Build 0)  -->
<!DOCTYPE svg PUBLIC "-//W3C//DTD SVG 1.1//EN" "http://www.w3.org/Graphics/SVG/1.1/DTD/svg11.dtd">
<svg version="1.1" id="Layer_1" xmlns="http://www.w3.org/2000/svg" xmlns:xlink="http://www.w3.org/1999/xlink" x="0px" y="0px"
	 width="31.871px" height="32px" viewBox="0 0 31.871 32" enable-background="new 0 0 31.871 32" xml:space="preserve">
<g>
	<path fill="#FFFFFF" d="M0.646,5.646C-0.201,6.494-0.02,7.688,0.654,8.361c0.027,0.026,2.734,2.612,6.541,6.419
		c0.098,0.098,0.226,0.146,0.354,0.146s0.256-0.049,0.354-0.146c0.195-0.195,0.195-0.512,0-0.707
		c-0.574-0.574-1.12-1.117-1.638-1.631l1.589-1.589c0.195-0.195,0.195-0.512,0-0.707s-0.512-0.195-0.707,0l-1.593,1.593
		c-0.891-0.88-1.676-1.648-2.315-2.271l3.615-3.615c0.195-0.195,0.195-0.512,0-0.707s-0.512-0.195-0.707,0L2.521,8.772
		c-0.736-0.713-1.16-1.118-1.167-1.125c-0.211-0.211-0.488-0.805,0-1.293l5-5C6.547,1.158,7.061,0.769,7.625,1.33
		c0.025,0.028,2.55,2.896,6.404,6.75c0.195,0.195,0.512,0.195,0.707,0c0.195-0.195,0.195-0.512,0-0.707
		C10.906,3.544,8.4,0.698,8.354,0.646c-0.932-0.93-2.056-0.651-2.707,0L0.646,5.646z"/>
	<path fill="#FFFFFF" d="M21.854,24.146c-0.194-0.195-0.513-0.195-0.707,0l-1.591,1.59c-0.485-0.491-0.994-1.006-1.53-1.541
		c-0.194-0.195-0.512-0.195-0.707,0c-0.194,0.195-0.194,0.512,0,0.707c3.704,3.703,6.291,6.469,6.328,6.509
		c0.343,0.344,0.813,0.532,1.323,0.532l0,0c0.525,0,1.056-0.204,1.385-0.534l4.998-5.058c0.629-0.629,0.665-1.695,0.078-2.285
		l-6.706-6.704c-0.195-0.195-0.513-0.195-0.707,0c-0.194,0.194-0.194,0.512,0,0.706l6.706,6.705
		c0.199,0.201,0.162,0.633-0.079,0.873l-4.999,5.058c-0.115,0.116-0.376,0.239-0.676,0.239l0,0c-0.172,0-0.418-0.041-0.604-0.229
		c-0.011-0.011-0.43-0.458-1.156-1.219l3.644-3.645c0.194-0.194,0.194-0.512,0-0.707c-0.194-0.194-0.513-0.194-0.707,0l-3.629,3.629
		c-0.624-0.648-1.39-1.438-2.261-2.325l1.597-1.597C22.048,24.658,22.048,24.342,21.854,24.146z"/>
	<path fill="#FFFFFF" d="M0.142,31.829c0.096,0.098,0.225,0.149,0.358,0.149c0.048,0,0.096-0.006,0.143-0.021l10-2.979
		c0.081-0.023,0.153-0.066,0.212-0.127l17.09-17.205c0.024-0.024,0.036-0.055,0.055-0.082l3.655-3.656
		c0.294-0.295,0.457-0.686,0.457-1.103c0-0.416-0.163-0.807-0.457-1.1l-5.235-5.234c-0.588-0.588-1.614-0.588-2.203,0l-3.738,3.739
		c-0.023,0.024-0.037,0.055-0.055,0.083L3.307,21.411c-0.056,0.056-0.098,0.124-0.122,0.198l-3.16,9.716
		C-0.033,31.502,0.012,31.695,0.142,31.829z M20.86,5.271l1.039,1.039L6.376,21.875l-1.727-0.393L20.86,5.271z M7,22.666
		L22.607,7.018l2.436,2.436L9.295,25H7V22.666z M26.884,11.296L10.64,27.65l-0.577-2.002L25.75,10.161L26.884,11.296z M3.993,22.359
		L6,22.814V25.5C6,25.775,6.224,26,6.5,26h2.624l0.634,2.2L1.27,30.729L3.993,22.359z M24.925,1.179
		c0.211-0.211,0.578-0.211,0.789,0l5.234,5.235c0.105,0.105,0.163,0.245,0.163,0.394c0,0.148-0.058,0.289-0.163,0.395l-3.371,3.372
		l-6.023-6.023L24.925,1.179z"/>
</g>
</svg>
